<?xml version="1.0" standalone="no"?>
<!DOCTYPE svg PUBLIC "-//W3C//DTD SVG 20010904//EN"
 "http://www.w3.org/TR/2001/REC-SVG-20010904/DTD/svg10.dtd">
<svg version="1.0" xmlns="http://www.w3.org/2000/svg"
 width="500.000000pt" height="500.000000pt" viewBox="0 0 500.000000 500.000000"
 preserveAspectRatio="xMidYMid meet">
<metadata>
Created by potrace 1.11, written by Peter Selinger 2001-2013
</metadata>
<g transform="translate(0.000000,500.000000) scale(0.100000,-0.100000)"
fill="#000000" stroke="none">
<path d="M1182 4898 c-17 -5 -40 -20 -51 -34 l-21 -27 0 -2069 0 -2070 29 -29
c18 -17 41 -29 58 -30 15 0 107 -1 204 -1 195 -1 218 5 238 64 7 21 11 234 11
649 l0 619 398 0 c405 1 569 5 651 15 l46 5 188 -372 c104 -205 251 -497 327
-648 76 -151 149 -285 162 -297 12 -11 39 -25 58 -30 53 -13 441 -8 468 6 30
16 45 48 37 79 -6 26 -111 239 -255 517 -37 72 -145 283 -240 470 -95 187
-181 355 -191 374 -10 19 -18 36 -16 37 1 1 34 18 72 39 179 96 335 232 430
376 51 77 135 246 135 271 0 8 4 18 9 24 8 9 56 192 65 254 29 181 29 520 0
690 -5 31 -26 130 -39 184 -42 175 -167 396 -296 523 -251 244 -573 369 -1059
409 -119 10 -1381 11 -1418 2z m1413 -512 c378 -45 606 -162 752 -388 89 -137
133 -312 138 -543 7 -299 -68 -524 -228 -687 -171 -176 -401 -264 -742 -284
-90 -5 -704 -9 -832 -5 l-33 1 0 958 0 958 443 -2 c243 0 469 -4 502 -8z"/>
<path d="M2429 475 c-56 -39 -63 -129 -13 -179 52 -51 141 -43 182 17 74 109
-60 238 -169 162z"/>
<path d="M2112 470 c-82 -50 -59 -178 36 -196 123 -23 182 154 67 202 -46 19
-64 18 -103 -6z"/>
<path d="M2778 474 c-76 -41 -69 -160 11 -194 65 -26 136 13 147 81 8 47 -9
85 -48 109 -39 23 -73 25 -110 4z"/>
<path d="M1809 465 c-56 -31 -63 -127 -12 -160 46 -31 87 -30 123 2 33 30 43
70 28 113 -16 48 -90 72 -139 45z"/>
<path d="M3093 468 c-69 -33 -60 -154 14 -179 43 -14 73 -6 106 27 77 76 -21
200 -120 152z"/>
<path d="M1509 441 c-40 -41 -39 -83 3 -123 27 -25 38 -29 67 -24 113 18 95
176 -20 176 -11 0 -34 -13 -50 -29z"/>
<path d="M3395 460 c-33 -13 -49 -39 -49 -81 0 -54 30 -84 85 -84 81 0 117 88
60 146 -30 29 -58 35 -96 19z"/>
<path d="M1270 453 c-39 -16 -57 -62 -40 -102 27 -67 118 -64 140 4 21 64 -39
122 -100 98z"/>
<path d="M3663 448 c-35 -17 -47 -59 -29 -102 15 -36 22 -40 80 -38 36 0 53
18 60 62 11 62 -54 107 -111 78z"/>
<path d="M1004 424 c-20 -19 -24 -31 -20 -52 8 -32 40 -62 68 -62 25 0 68 44
68 70 0 12 -11 32 -25 45 -31 32 -59 32 -91 -1z"/>
<path d="M3905 425 c-14 -13 -25 -33 -25 -45 0 -27 43 -70 70 -70 12 0 32 12
46 27 29 31 26 67 -8 96 -28 24 -55 21 -83 -8z"/>
<path d="M787 422 c-35 -41 -21 -84 30 -97 22 -5 31 -2 45 15 22 27 23 63 3
80 -23 19 -62 20 -78 2z"/>
<path d="M4149 426 c-18 -9 -24 -20 -24 -46 0 -28 5 -37 28 -48 24 -12 31 -11
53 2 59 39 6 124 -57 92z"/>
</g>
</svg>
